<svg xmlns="http://www.w3.org/2000/svg" viewBox="0 0 180 180">
  <defs>
    <linearGradient id="g" x1="0" y1="0" x2="1" y2="1">
      <stop offset="0%" stop-color="#4f46e5"/>
      <stop offset="100%" stop-color="#7c3aed"/>
    </linearGradient>
  </defs>
  <rect width="180" height="180" rx="36" fill="url(#g)"/>
  <path d="M126 54a34 34 0 1 0 0 72 11 11 0 0 1 0 22h-72a11 11 0 0 1-11-11 11 11 0 0 1 3.4-8A34 34 0 0 1 54 54a11 11 0 0 1 11-11h50a11 11 0 0 1 11 11z" fill="#ffffff" opacity="0.95"/>
  <circle cx="76" cy="78" r="10" fill="#4f46e5"/>
  <circle cx="100" cy="92" r="10" fill="#4f46e5"/>
  <circle cx="130" cy="78" r="10" fill="#4f46e5"/>
</svg>
