<svg xmlns="http://www.w3.org/2000/svg" viewBox="0 0 64 64">
  <defs>
    <linearGradient id="g" x1="0" y1="0" x2="1" y2="1">
      <stop offset="0%" stop-color="#4f46e5"/>
      <stop offset="100%" stop-color="#7c3aed"/>
    </linearGradient>
  </defs>
  <rect width="64" height="64" rx="14" fill="url(#g)"/>
  <path d="M44.5 19.5a12 12 0 1 0 0 25 4 4 0 0 1 0 8h-25a4 4 0 0 1-4-4 4 4 0 0 1 1.2-2.85A12 12 0 0 1 19.5 19.5a4 4 0 0 1 4-4h17a4 4 0 0 1 4 4z" fill="#ffffff" opacity="0.95"/>
  <circle cx="27" cy="28" r="3.5" fill="#4f46e5"/>
  <circle cx="36" cy="33" r="3.5" fill="#4f46e5"/>
  <circle cx="46" cy="28" r="3.5" fill="#4f46e5"/>
</svg>
